<svg id="Unbenannt-1" xmlns="http://www.w3.org/2000/svg" width="50.955" height="27.444" viewBox="0 0 50.955 27.444">
  <path id="Pfad_29" data-name="Pfad 29" d="M192.789,359.345a48.861,48.861,0,0,1-14.353-1.983,22.79,22.79,0,0,1-8.018-4.051,9.058,9.058,0,0,1-2.791-3.558,6.319,6.319,0,0,1,1.049-6.622,15.118,15.118,0,0,1,5.594-4.2,1,1,0,0,1,1.366.443,1.053,1.053,0,0,1-.5,1.4c-1.134.712-2.3,1.371-3.389,2.151a6.417,6.417,0,0,0-2.217,2.759,4.367,4.367,0,0,0,.773,4.6,12.257,12.257,0,0,0,4.186,3.283,33.086,33.086,0,0,0,10.565,3.19,51.812,51.812,0,0,0,14.523.088,33.527,33.527,0,0,0,11.144-3.281,12.591,12.591,0,0,0,3.939-2.98,4.668,4.668,0,0,0-.279-6.84,13.938,13.938,0,0,0-3.305-2.444c-.349-.189-.71-.359-1.049-.566a1.018,1.018,0,0,1-.443-1.366,1,1,0,0,1,1.413-.4,23.51,23.51,0,0,1,3.06,1.84,13.709,13.709,0,0,1,2.617,2.556,6.527,6.527,0,0,1-.732,8.843,19.357,19.357,0,0,1-7.388,4.541A46.2,46.2,0,0,1,192.789,359.345Z" transform="translate(-167.116 -331.901)" fill="#fff"/>
  <path id="Pfad_30" data-name="Pfad 30" d="M335.535,342.479a11.183,11.183,0,0,1-.773,3.7,4.362,4.362,0,0,1-8.09-.036,8.438,8.438,0,0,1-.654-3.933,12.372,12.372,0,0,1,.466-2.976,4.381,4.381,0,0,1,8.494.076A27,27,0,0,1,335.535,342.479Zm-3.19-.289c-.114-.728-.229-1.678-.417-2.613a1.266,1.266,0,0,0-.9-1.031c-.7-.2-1.32.2-1.575,1.065a10.788,10.788,0,0,0-.249,4.134,8.218,8.218,0,0,0,.463,1.91,1.038,1.038,0,0,0,1.062.674,1.084,1.084,0,0,0,1.023-.662,4,4,0,0,0,.357-1.074c.116-.718.156-1.441.247-2.4Z" transform="translate(-294.323 -329.625)" fill="#fff"/>
  <path id="Pfad_31" data-name="Pfad 31" d="M278.716,337.121l-2.809,4.242a11.974,11.974,0,0,1,2.155.13,3.355,3.355,0,0,1,2.6,2.879,4.457,4.457,0,0,1-1.015,3.987,4.657,4.657,0,0,1-3.622,1.449,4.534,4.534,0,0,1-3.74-1.5,4.592,4.592,0,0,1-.732-4.727,26.515,26.515,0,0,1,1.9-3.692c.478-.849,1.045-1.649,1.585-2.464.082-.124.231-.287.351-.291C276.465,337.111,277.536,337.121,278.716,337.121Zm-.891,8.3a1.746,1.746,0,0,0-1.884-1.89,1.9,1.9,0,1,0,1.884,1.89Z" transform="translate(-250.461 -330.546)" fill="#fff"/>
  <path id="Pfad_32" data-name="Pfad 32" d="M216.469,344.34h3.1c.355,1.559.75,1.958,1.81,1.84a1.405,1.405,0,0,0,1.375-1.567c0-1.178-.4-1.5-2.215-1.72v-1.928c.632-.06,1.278-.052,1.647-.6a1.926,1.926,0,0,0,.271-.975,1.186,1.186,0,0,0-1.166-1.186c-.9-.088-1.346.267-1.579,1.294H216.76a3.19,3.19,0,0,1,1.886-3.124,6.179,6.179,0,0,1,4.84-.112,2.966,2.966,0,0,1,1.748,3.628,2.67,2.67,0,0,1-1.718,1.7,9.082,9.082,0,0,1,1,.452,3.248,3.248,0,0,1,1.214,3.7,3.666,3.666,0,0,1-2.328,2.592,5.441,5.441,0,0,1-5.43-.57A3.889,3.889,0,0,1,216.469,344.34Z" transform="translate(-206.63 -329.511)" fill="#fff"/>
  <path id="Pfad_33" data-name="Pfad 33" d="M363.567,307.088a2.9,2.9,0,1,1-2.854-2.938,2.9,2.9,0,0,1,2.854,2.938Zm-2.033-.072a.857.857,0,0,0-.873-.823.835.835,0,0,0-.827.859.861.861,0,0,0,.863.837A.893.893,0,0,0,361.534,307.017Z" transform="translate(-319.768 -304.15)" fill="#fff"/>
</svg>
