<?xml version="1.0" encoding="UTF-8"?><svg id="Helvetica" xmlns="http://www.w3.org/2000/svg" viewBox="0 0 540.73 372.85"><path d="M20.17,0V71.91h.5c3-7.85,8.35-14.16,16.04-18.92,7.68-4.76,16.12-7.14,25.31-7.14s16.58,1.17,22.68,3.51c6.1,2.34,10.98,5.64,14.66,9.9,3.67,4.26,6.26,9.48,7.77,15.66,1.5,6.18,2.25,13.12,2.25,20.8v83.19h-15.79V98.22c0-5.51-.5-10.65-1.5-15.41-1-4.76-2.76-8.9-5.26-12.4-2.51-3.51-5.89-6.26-10.15-8.27-4.26-2.01-9.57-3.01-15.91-3.01s-11.99,1.13-16.91,3.38c-4.93,2.26-9.11,5.35-12.53,9.27-3.43,3.93-6.1,8.61-8.02,14.03-1.92,5.43-2.97,11.32-3.13,17.67v75.42H4.39V0h15.79Z"/><path d="M149.84,69.66c2.67-5.51,6.3-10.02,10.9-13.53,4.59-3.51,9.98-6.1,16.16-7.77,6.18-1.67,13.03-2.51,20.55-2.51,5.68,0,11.36,.54,17.04,1.63,5.68,1.09,10.78,3.13,15.29,6.14s8.18,7.23,11.02,12.65c2.84,5.43,4.26,12.49,4.26,21.17v68.66c0,6.35,3.09,9.52,9.27,9.52,1.84,0,3.51-.33,5.01-1v13.28c-1.84,.34-3.47,.59-4.89,.75-1.42,.17-3.22,.25-5.39,.25-4.01,0-7.23-.54-9.65-1.63-2.42-1.08-4.3-2.63-5.64-4.63-1.34-2-2.21-4.39-2.63-7.14-.42-2.76-.63-5.8-.63-9.15h-.5c-2.84,4.18-5.72,7.89-8.65,11.15-2.92,3.26-6.18,5.97-9.77,8.14-3.59,2.17-7.69,3.84-12.28,5.01-4.6,1.17-10.06,1.75-16.41,1.75-6.01,0-11.65-.71-16.91-2.13-5.26-1.42-9.86-3.67-13.78-6.77-3.93-3.09-7.02-7.02-9.27-11.77-2.25-4.76-3.38-10.4-3.38-16.91,0-9.02,2-16.08,6.01-21.17,4.01-5.09,9.31-8.98,15.91-11.65,6.6-2.67,14.03-4.55,22.3-5.64,8.27-1.08,16.66-2.13,25.18-3.13,3.34-.33,6.26-.75,8.77-1.25s4.59-1.38,6.26-2.63c1.67-1.25,2.96-2.96,3.88-5.14,.92-2.17,1.38-5.01,1.38-8.52,0-5.34-.88-9.73-2.63-13.16-1.75-3.42-4.18-6.14-7.27-8.14-3.09-2-6.68-3.38-10.77-4.13-4.1-.75-8.48-1.13-13.16-1.13-10.02,0-18.21,2.38-24.56,7.14-6.35,4.76-9.69,12.4-10.02,22.93h-15.79c.5-7.52,2.08-14.03,4.76-19.54Zm78.93,38.59c-1,1.84-2.92,3.18-5.76,4.01-2.84,.84-5.35,1.42-7.52,1.75-6.68,1.17-13.57,2.22-20.67,3.13-7.1,.92-13.57,2.3-19.42,4.14-5.85,1.84-10.65,4.47-14.41,7.89-3.76,3.43-5.64,8.31-5.64,14.66,0,4.01,.79,7.56,2.38,10.65,1.59,3.09,3.71,5.76,6.39,8.02,2.67,2.25,5.76,3.97,9.27,5.14,3.51,1.17,7.1,1.75,10.77,1.75,6.01,0,11.78-.92,17.29-2.76,5.51-1.84,10.31-4.51,14.41-8.02,4.09-3.51,7.35-7.77,9.77-12.78,2.42-5.01,3.63-10.69,3.63-17.04v-20.55h-.5Z"/><path d="M377.99,178.91v-23.3h-.5c-4.18,8.69-10.23,15.33-18.17,19.92-7.94,4.59-16.75,6.89-26.43,6.89-8.19,0-15.16-1.13-20.92-3.38-5.77-2.25-10.44-5.47-14.03-9.65-3.59-4.17-6.23-9.27-7.89-15.29-1.67-6.01-2.51-12.86-2.51-20.54V49.62h15.79v84.19c.33,11.69,3.05,20.55,8.14,26.56,5.09,6.01,13.91,9.02,26.43,9.02,6.85,0,12.69-1.46,17.54-4.39,4.84-2.92,8.85-6.81,12.03-11.65,3.17-4.84,5.51-10.4,7.02-16.66,1.5-6.26,2.26-12.66,2.26-19.17V49.62h15.79V178.91h-14.53Z"/><path d="M513.04,74.8c-1.84-3.59-4.3-6.56-7.39-8.89-3.09-2.34-6.64-4.05-10.65-5.14-4.01-1.08-8.27-1.63-12.78-1.63-3.51,0-7.06,.37-10.65,1.13-3.59,.75-6.89,2-9.9,3.76-3.01,1.75-5.43,4.05-7.27,6.89-1.84,2.84-2.76,6.35-2.76,10.52,0,3.51,.88,6.48,2.63,8.9,1.75,2.42,3.97,4.47,6.64,6.14,2.67,1.67,5.59,3.05,8.77,4.14,3.17,1.09,6.1,1.96,8.77,2.63l21.05,4.76c4.51,.67,8.98,1.88,13.41,3.63,4.42,1.75,8.35,4.05,11.77,6.89,3.42,2.84,6.22,6.35,8.4,10.52,2.17,4.18,3.26,9.11,3.26,14.78,0,7.02-1.59,12.99-4.76,17.92-3.17,4.93-7.23,8.94-12.15,12.03-4.93,3.09-10.49,5.3-16.66,6.64-6.18,1.34-12.28,2.01-18.29,2.01-15.2,0-27.52-3.59-36.96-10.78-9.44-7.18-14.83-18.7-16.16-34.58h15.79c.67,10.69,4.55,18.75,11.65,24.18,7.1,5.43,15.91,8.14,26.43,8.14,3.84,0,7.81-.42,11.9-1.25,4.09-.83,7.89-2.26,11.4-4.26,3.51-2,6.39-4.55,8.64-7.64,2.26-3.09,3.38-6.89,3.38-11.4,0-3.84-.8-7.06-2.38-9.65-1.59-2.59-3.72-4.76-6.39-6.51-2.67-1.75-5.72-3.22-9.15-4.39-3.43-1.17-6.89-2.17-10.4-3.01l-20.3-4.51c-5.18-1.34-9.94-2.88-14.28-4.64-4.35-1.75-8.14-3.92-11.4-6.51-3.26-2.59-5.81-5.76-7.64-9.52-1.84-3.76-2.76-8.4-2.76-13.91,0-6.52,1.46-12.11,4.39-16.79,2.92-4.68,6.72-8.43,11.4-11.28,4.67-2.84,9.9-4.93,15.66-6.26,5.76-1.34,11.48-2,17.16-2,6.52,0,12.57,.84,18.17,2.51,5.6,1.67,10.52,4.26,14.78,7.77,4.26,3.51,7.64,7.85,10.15,13.03,2.51,5.18,3.92,11.28,4.26,18.29h-15.79c-.17-4.84-1.17-9.06-3.01-12.65Z"/><path d="M0,239.8H27.06v19.04l.5,.5c4.34-7.18,10.02-12.82,17.04-16.91,7.02-4.09,14.78-6.14,23.3-6.14,14.2,0,25.39,3.68,33.58,11.02,8.18,7.35,12.28,18.38,12.28,33.08v88.95h-28.57v-81.44c-.34-10.19-2.51-17.58-6.51-22.17-4.01-4.59-10.27-6.89-18.79-6.89-4.85,0-9.19,.88-13.03,2.63-3.84,1.75-7.1,4.18-9.77,7.27-2.67,3.09-4.76,6.73-6.26,10.9-1.5,4.18-2.25,8.61-2.25,13.28v76.42H0V239.8Z"/><path d="M166.13,311.96c0,5.01,.71,9.86,2.13,14.54,1.42,4.68,3.55,8.77,6.39,12.28,2.84,3.51,6.43,6.31,10.77,8.4,4.34,2.09,9.52,3.13,15.54,3.13,8.35,0,15.07-1.79,20.17-5.39,5.09-3.59,8.9-8.98,11.4-16.16h27.06c-1.5,7.02-4.1,13.28-7.77,18.79-3.68,5.51-8.1,10.15-13.28,13.91-5.18,3.76-10.98,6.6-17.42,8.52-6.43,1.92-13.16,2.88-20.17,2.88-10.19,0-19.21-1.67-27.06-5.01-7.85-3.34-14.49-8.02-19.92-14.03-5.43-6.01-9.52-13.19-12.28-21.55-2.76-8.35-4.14-17.54-4.14-27.56,0-9.19,1.46-17.92,4.39-26.19,2.92-8.27,7.1-15.54,12.53-21.8,5.43-6.26,11.99-11.23,19.67-14.91,7.68-3.67,16.37-5.51,26.06-5.51,10.19,0,19.33,2.13,27.44,6.39,8.1,4.26,14.82,9.9,20.17,16.91,5.34,7.02,9.23,15.08,11.65,24.18,2.42,9.11,3.04,18.5,1.88,28.19h-95.22Zm66.65-18.79c-.34-4.51-1.3-8.85-2.88-13.03-1.59-4.17-3.76-7.81-6.51-10.9-2.76-3.09-6.1-5.59-10.02-7.52-3.93-1.92-8.31-2.88-13.16-2.88s-9.57,.88-13.66,2.63c-4.09,1.75-7.6,4.18-10.52,7.27-2.92,3.09-5.26,6.73-7.02,10.9-1.75,4.18-2.72,8.69-2.88,13.53h66.65Z"/><path d="M396.9,369.34h-28.06v-18.04h-.5c-3.51,6.52-8.73,11.74-15.66,15.66-6.93,3.92-13.99,5.89-21.17,5.89-17.04,0-29.36-4.22-36.96-12.66-7.6-8.43-11.4-21.17-11.4-38.21v-82.19h28.57v79.43c0,11.36,2.17,19.38,6.51,24.05,4.34,4.68,10.44,7.02,18.29,7.02,6.01,0,11.03-.92,15.03-2.76,4.01-1.84,7.27-4.3,9.77-7.39,2.51-3.09,4.3-6.8,5.39-11.15,1.09-4.34,1.63-9.02,1.63-14.03v-75.17h28.57v129.55Z"/><path d="M426.97,239.8h27.06v19.04l.5,.5c4.34-7.18,10.02-12.82,17.04-16.91,7.02-4.09,14.78-6.14,23.3-6.14,14.2,0,25.39,3.68,33.58,11.02,8.18,7.35,12.28,18.38,12.28,33.08v88.95h-28.57v-81.44c-.34-10.19-2.51-17.58-6.51-22.17-4.01-4.59-10.27-6.89-18.79-6.89-4.85,0-9.19,.88-13.03,2.63-3.84,1.75-7.1,4.18-9.77,7.27-2.67,3.09-4.76,6.73-6.26,10.9-1.5,4.18-2.25,8.61-2.25,13.28v76.42h-28.57V239.8Z"/></svg>